<svg xmlns="http://www.w3.org/2000/svg" xmlns:xlink="http://www.w3.org/1999/xlink" id="Layer_1" x="0px" y="0px" viewBox="0 0 738.24 369.12" style="enable-background:new 0 0 738.24 369.12;" xml:space="preserve"><style type="text/css">	.st0{fill:#D91F26;}	.st1{fill:#231F20;}	.st2{fill:#FFFFFF;}	.st3{fill:#EB0D8C;}</style><path class="st0" d="M716.45,200.39c-2.01-2.2-4.4-4.06-7.04-5.52c-0.14-1.38-0.36-2.74-0.66-4.07 c-2.82-13.34-13.3-23.01-26.11-24.09c-0.85-0.08-1.72-0.12-2.57-0.12c-4.86,0-13.33,1.39-21.18,9.49 c-1.19-16.1-11.49-29.01-25.95-32.88c-0.08-1.44-0.19-2.79-0.3-4.04c-0.23-2.56-1.65-4.78-3.71-6.07c1.85-5.25,3.62-11.2,4.21-17.52 c1.07-11.29-3.29-18.7-7.13-22.92c-2.04-2.23-4.45-4.12-7.12-5.6c-0.14-1.43-0.36-2.84-0.66-4.23c-0.01-0.04-0.02-0.07-0.02-0.11 c-2.12-9.3-7.85-16.79-15.68-20.79c-2.61-8.6-8.74-15.32-17.11-18.65c-3.36-1.33-6.89-2.01-10.48-2.01 c-19.82,0-32.68,19.72-35.48,33.71c-0.19,0.92-0.35,1.84-0.47,2.75c-0.51-0.03-1.03-0.04-1.55-0.04c-5.4,0-10.71,1.39-15.83,4.15 c-1.68-0.49-3.4-0.88-5.14-1.16c6.29-12.44,6.36-28-1.14-39.03c-7.47-11-18.43-17.06-30.86-17.06c-15.75,0-28.93,9.6-38.1,19.07 c-11.43-4.03-23.17-8.12-34.86-11.87c-11.86-3.84-27.62-8.26-44.2-8.26c-5.83,0-11.53,0.54-16.95,1.62 c-23.75,4.63-40.6,19.25-45.07,39.12c-1.18,5.26-1.66,10.3-1.45,15.06c-4.5-2.59-9.52-4.14-14.85-4.57 c-1.24-0.22-2.5-0.32-3.75-0.32c-3.28,0-6.44,0.71-9.31,2.06c-2.99-10.28-10.73-18.74-20.74-22.09c-1.04-0.36-2.09-0.66-3.16-0.9 c1.69-2.11,2.21-4.96,1.33-7.56c-0.97-2.88-3.5-4.96-6.51-5.37l-26.85-3.6c-2.87-0.38-5.75-0.58-8.57-0.58 c-17.34,0-32.88,6.74-47.51,20.61c-10.62,10.07-19.19,22.41-26.77,33.86l-0.18-15.6c-0.04-3.32-2.12-6.27-5.23-7.42 c-0.9-0.33-1.84-0.49-2.77-0.49c-2.27,0-4.48,0.96-6.03,2.74L99.83,96.5c-4.64,5.31-7.66,12.14-8.95,20.1 c-1.03-0.13-2.11-0.22-3.25-0.28c-0.04,0-0.07,0-0.11,0l-0.72-0.03c-0.54-0.02-1.05-0.03-1.56-0.03c-0.82,0-1.63,0.02-2.41,0.07 l-0.45,0.02c-0.03,0-0.07,0-0.1,0.01c-1.39,0.09-2.8,0.25-4.29,0.49c-0.05,0.01-0.1,0.02-0.15,0.02l-0.78,0.14 c-1.01,0.18-1.99,0.39-3.01,0.64c-0.38,0.09-0.76,0.18-1.19,0.3c-1.11,0.3-2.16,0.61-3.14,0.94c-0.7,0.23-1.38,0.48-2.23,0.81 c-0.02,0.01-0.03,0.01-0.05,0.02L66.73,120c-0.02,0.01-0.05,0.02-0.07,0.03c-2.94,1.17-5.8,2.57-8.49,4.15 c-0.26,0.15-0.52,0.32-0.76,0.51L46.38,133c-0.25,0.19-0.49,0.39-0.72,0.61c-10.6,10.15-17.62,24.06-19.75,39.17 c-2.16,15.28,0.88,30.4,8.54,42.58c10.38,16.51,28.03,26.37,47.21,26.37c12.77,0,25.51-4.46,35.88-12.55 c13.24-10.37,21.07-23.88,27.36-34.74c0.1-0.18,0.25-0.43,0.42-0.72c2.38,14.45,7.08,26.59,14.04,36.19 c7.01,9.67,16.15,16.65,27.16,20.72c3.36,1.24,6.74,2.15,10.13,2.72c-0.09,9.65,2.13,19.2,6.46,27.56 c7.26,13.99,19.43,22.9,34.29,25.09c2.77,0.41,5.63,0.63,8.49,0.63c13.53,0,27.14-4.51,40.59-13.44 c7.56,23.06,20.31,45.06,48.96,51.79c5.43,1.28,10.94,1.93,16.38,1.93c23.36,0,43.68-11.99,51.78-30.55 c3.51-8.03,4.48-16.68,3.01-25.31c3.96,1.32,8.1,2.02,12.28,2.02c3.84,0,7.62-0.56,11.28-1.66c5.56,5.42,11.33,8.71,14.11,10.29 l24.15,13.77c1.23,0.7,2.6,1.05,3.96,1.05c1.59,0,3.18-0.47,4.54-1.41c2.53-1.74,3.84-4.78,3.37-7.81l-1.79-11.52 c6.11-0.75,12.15-3.05,17.55-6.7c6.51,4.16,14.2,6.4,22.23,6.4c5.76,0,11.35-1.15,16.6-3.41c1.22-0.53,2.42-1.12,3.6-1.77 c5.9,3.54,12.72,5.44,19.71,5.44c5.54,0,10.96-1.16,16.14-3.45c6.86,6.29,15.79,9.81,25.25,9.81c4.95,0,9.84-0.96,14.55-2.85 c0.04-0.01,0.07-0.03,0.11-0.04c4.88,3.06,10.48,4.66,16.46,4.66c1.11,0,2.21-0.06,3.27-0.17c9.16-0.9,17.52-5.41,24.87-13.4 c1.3,0.97,2.68,1.88,4.15,2.71c5.89,3.32,12.59,5.07,19.39,5.07c9.31,0,18.5-3.21,25.87-9.04c17.47-13.58,15.63-34.28,14.94-42.07 c-0.23-2.56-1.65-4.78-3.72-6.08c1.86-5.24,3.63-11.21,4.23-17.62c0-0.02,0-0.04,0.01-0.06 C724.68,211.95,720.3,204.58,716.45,200.39z M372.46,181.63c5.12,2.3,10.61,3.51,16.11,3.51c0.04,0,0.08,0,0.11,0 c0.42,1.3,0.88,2.59,1.38,3.86c-1.61-0.24-3.26-0.37-4.94-0.37c-2.87,0-5.79,0.37-8.74,1.1 C375.27,186.93,373.96,184.23,372.46,181.63z"></path><g>	<path class="st1" d="M447.83,193.92c-0.36-2.61-0.61-5.24-0.75-7.9c1.1,0.18,2.22,0.27,3.37,0.27c0.7,0,1.42-0.03,2.14-0.1  c0.04,0,0.08,0,0.12,0c2.02,0,3.93-0.31,5.71-0.81c-1.68,4.77-4.63,10.61-5.88,13.08c-0.49,0.97-0.94,1.86-1.33,2.67  c-0.93-0.86-1.94-1.63-3-2.34C448.22,196.78,447.98,195.02,447.83,193.92z M715.73,222.54c0.72-8.38-2.42-13.73-5.18-16.75  c-1.85-2.02-4.73-4.29-8.98-5.61c0.12-2.61-0.09-5.2-0.64-7.71c-2.08-9.89-9.79-17.05-19-17.8c-0.63-0.06-1.25-0.09-1.86-0.09  c-5.28,0-12.94,2.13-19.52,12.25c-1.1,1.64-2.06,3.37-2.86,5.16c-0.65-0.05-1.31-0.08-1.98-0.08c-2.56,0-5.13,0.4-7.68,1.19  c1.83-4.06,2.81-8.37,2.96-12.58c0.59-16.27-10.22-29.35-25.14-30.44l-0.88-0.06c0.23-4.1-0.07-7.7-0.29-10.16l-6.53-0.68  c0.42-1.15,0.86-2.33,1.31-3.52c2.35-6.24,5.02-13.31,5.72-20.85c0.79-8.39-2.33-13.76-5.08-16.79c-1.86-2.04-4.76-4.34-9.05-5.66  c0.12-2.65-0.09-5.29-0.64-7.88c-1.89-8.29-7.51-14.51-14.79-16.78c-0.09-0.63-0.19-1.26-0.33-1.88c-1.58-7-6.25-12.51-12.83-15.12  c-2.42-0.96-4.95-1.45-7.52-1.45c-15.13,0-25.44,16.32-27.64,27.29c-0.83,4.01-0.89,7.84-0.24,11.37  c-3.02-1.44-6.26-2.23-9.62-2.23c-5.04,0-10.08,1.68-14.91,4.92c-4.08-1.64-8.61-2.53-13.26-2.53c-3.38,0-6.59,0.55-9.61,1.43  c-3.39,0.99-2.89,1.25,1.41-2.17c12.13-9.61,15.76-29.26,7.64-41.21c-5.94-8.74-14.55-13.56-24.25-13.56  c-15.2,0-28.07,11.47-35.77,20.37l-0.7-0.25c-12.72-4.48-25.88-9.12-38.93-13.3c-11.32-3.67-26.3-7.88-41.76-7.88  c-5.31,0-10.5,0.49-15.39,1.46c-20.56,4.01-35.07,16.34-38.82,33.03c-1.78,7.96-1.57,14.42-0.38,19.59  c-2.6,1.39-5.08,3.01-7.42,4.77c-4.64-4.49-10.61-7.23-17.34-7.67c-0.9-0.18-1.81-0.27-2.73-0.27c-4.32,0-8.33,1.95-10.99,5.36  c-0.15,0.2-0.3,0.4-0.45,0.6c-1.41-0.84-2.92-1.52-4.49-2c-0.01-0.78-0.04-1.55-0.1-2.32c-0.72-10.16-7.44-19.06-16.59-22.11  c-2.38-0.82-4.83-1.24-7.29-1.24c-4.81,0-11.65,1.58-18.22,8.66c0.52-1.41,0.97-2.61,1.33-3.54l17.35-17.35l-26.85-3.6  c-2.51-0.34-5.04-0.51-7.51-0.51c-34.18,0-54.33,30.67-70.52,55.31c-1.2,1.82-2.38,3.62-3.59,5.44c-2.43,3.69-4.81,7.44-7.13,11.15  c-0.51-1.94-0.8-3.91-0.82-5.83l-0.4-35.11l-23.1,26.44c-6.47,7.41-7.85,17.38-7.67,25.36c-2.04-1.05-4.25-1.83-6.58-2.31  l-0.59-0.11c-1.17-0.19-2.41-0.31-3.8-0.38l-0.72-0.03c-0.42-0.01-0.84-0.02-1.26-0.02c-0.65,0-1.31,0.02-1.96,0.05l-0.45,0.02  c-1.14,0.08-2.33,0.21-3.59,0.41l-0.78,0.14c-0.82,0.15-1.64,0.32-2.56,0.54c-0.31,0.07-0.63,0.15-0.99,0.24  c-0.91,0.24-1.8,0.51-2.65,0.8c-0.6,0.2-1.19,0.42-1.94,0.7l-0.71,0.27c-2.57,1.02-5.06,2.24-7.39,3.62l-11.03,8.32  c-19.19,18.37-23.79,49.76-9.97,71.71c8.91,14.17,24.03,22.63,40.44,22.63c10.99,0,21.98-3.85,30.96-10.85  c12.02-9.41,19.42-22.19,25.37-32.46c0.71-1.22,3.38-5.9,4.01-6.99c0.69-1.06,1.37-2.13,2.04-3.19c2.54,0.38,5.16,0.61,7.85,0.68  c2.9,40.94,21.83,56.43,37.41,62.21c5.25,1.94,10.54,2.93,15.73,2.93c0,0,0,0,0,0c0.07,0,0.13-0.01,0.2-0.01  c-1.58,10.5,0.08,21.72,4.98,31.17c6.04,11.65,16.12,19.06,28.35,20.85c2.4,0.36,4.86,0.54,7.32,0.54  c17.55,0,33.2-8.95,45.01-18.68c6.53,24.34,16.77,50.3,46.36,57.25c4.83,1.14,9.73,1.72,14.55,1.72c0,0,0,0,0.01,0  c20.17,0,37.61-10.11,44.44-25.75c5.71-13.08,3.29-27.74-6.56-41.04c0.61-0.64,1.22-1.25,1.83-1.95  c6.42,9.01,16.53,14.9,27.36,14.9c4.66,0,9.23-1.04,13.5-3.06c5.6,6.9,12.79,11,15.85,12.74l24.15,13.77l-3.25-20.96  c1.64,0.32,3.33,0.48,5.02,0.48c6.84,0,13.83-2.58,19.73-7.29c0.7-0.57,1.4-1.16,2.1-1.78c5.93,5.46,13.8,8.51,22.29,8.51  c4.66,0,9.18-0.92,13.44-2.76c2.51-1.08,4.82-2.47,6.93-4.11c5.31,4.5,12.09,7.12,19.54,7.12c5.23,0,10.33-1.3,15.18-3.88  c0.74-0.39,1.6-0.9,2.62-1.61c0.18,0.24,0.35,0.46,0.52,0.68c5.64,7.1,14.04,11.17,23.06,11.17c3.93,0,7.8-0.76,11.56-2.27  c1.42-0.58,2.75-1.22,4.02-1.92c4.2,3.81,9.55,5.96,15.53,5.96c0.82,0,1.66-0.04,2.46-0.12c11-1.07,18.08-8.88,20.6-11.75  c1.49-1.57,3.03-3.4,4.6-5.42c2.03,2.81,4.82,5.36,8.57,7.49c4.67,2.63,10.02,4.03,15.45,4.03c7.53,0,15-2.63,20.93-7.33  c14.06-10.91,12.55-27.84,11.91-35.07l-6.55-0.71c0.42-1.13,0.85-2.27,1.29-3.43C712.33,237.28,715.02,230.2,715.73,222.54z   M424.18,88.54c-1.01,1.63-2.02,3.26-3.01,4.88c-4.74-4.51-11.21-7.07-18.72-7.07c-8.03,0-16.68,2.94-23.72,8.05  c-1.23,0.89-2.42,1.82-3.58,2.79c-0.72-1.12-1.52-2.17-2.39-3.14c-2.38-2.64-5.24-4.63-8.39-5.89c1.17-1.57,2.71-2.98,4.36-3.82  c4.47-2.28,10.12-3.43,16.8-3.43c12.52,0,26.37,3.9,38.34,7.54C423.96,88.48,424.07,88.51,424.18,88.54z M276.83,217.21  c-1.73,0.44-3.45,0.87-5.22,1.28c-3.13-3.28-7.3-5.81-12.26-7.34c5.09-0.9,10.06-2.08,14.85-3.32c3.97-1.04,8.05-2.06,12.2-3  C283.03,209.46,279.87,213.55,276.83,217.21z M371.24,200.06c-2.01-8.64-6.19-16.79-12.44-23.59c2.91-1.67,5.9-3.99,8.85-7.21  c5.91,4.95,13.25,7.88,20.91,7.88c2.08,0,4.15-0.21,6.18-0.62c1.74,9.54,6.5,19.24,13.6,26.36c-1.41,1.05-2.74,2.1-3.95,3.15  c-4.87-6.04-11.65-9.4-19.28-9.4C380.2,196.63,375.5,198.03,371.24,200.06z"></path></g><g>	<path class="st2" d="M564.57,92.44c3.47,2.64,7.47,0.64,9.83-1.87c3.42-3.68,7.7-13.24,6.35-19.23c-0.51-2.26-1.75-3.75-3.79-4.56  c-1.69-0.67-3.42-0.5-5.3,0.52c-4.97,2.7-8.93,10.26-9.77,14.46C561.33,84.53,560.92,89.59,564.57,92.44z"></path>	<path class="st2" d="M166.59,167l-0.07,1.84c-0.14,3.79-0.04,7.55,0.06,10.4c0.95,19.42,6.56,44.25,27.89,52.15  c13.63,5.04,23.63-0.43,29.62-5.92c7.26-6.65,10.62-14.93,11-17.7c-16.17,3.56-30.52-7.48-36.49-20.51  c-3.73-8.11-5.83-17.34-6.4-28.21l-0.05-0.99l0.89-0.44c8.55-4.18,16.64-9.32,24.03-15.27c7.22-5.75,13.66-12.13,19.15-18.96  l0.13-0.17c1.35-1.65,2.7-3.31,4.1-5.08l0.51-0.64l0.82,0.08c2.16,0.22,4.48-0.09,6.88-0.94l2.17-0.76l-0.18,2.29  c-0.18,2.39-0.74,4.77-1.91,8.22l-0.32,0.96c-1.39,4.17-2.83,8.48-3.82,12.76c-1.79,8.1-2.91,15.31,1.64,21.37  c2.19,2.93,5.19,4.16,8.92,3.68c6.51-0.85,14.26-7.13,16.92-13.72l2.36-5.85l0.52,6.29c0.06,0.75,0.12,1.45,0.23,2.07  c0.77,4.85,3.28,9.06,6.73,11.3c2.35,1.52,5.06,2.08,7.92,1.64c-1.58-8.23,4.12-22.73,8.76-34.54l0.46-1.13  c0.83-1.52,1.74-3.08,2.62-4.59l0.81-1.4c3.01-5.28,6.71-11.24,12.43-15.06l2.23-1.49l0.1,2.68c0.2,5.63-2.38,11.75-4.66,17.15  c-0.72,1.71-1.4,3.33-1.95,4.82c-0.56,1.51-1.19,3.07-1.8,4.57c-2.03,5.02-4.13,10.22-4.51,15.35c-0.2,2.4-0.1,6.86,2.89,10.03  c2.28,2.42,5.8,3.66,10.47,3.69c0.72-1.74,2.38-6.52,4-11.16c3.64-10.43,8.16-23.42,10.55-27.6c3.5-6.18,7.76-10.07,13.04-11.88  l3.1-1.07l-1.22,3.04c-1,2.5-2.05,5-3.17,7.65c-4.07,9.66-8.28,19.65-9.65,29.23c-0.41,2.65-0.44,6.37,1.72,9.1  c1.57,1.98,4.09,3.12,7.48,3.38c5.58,0.43,10.67-2.6,15.58-9.27c0.55-0.74,1.12-1.49,1.7-2.25c2.07-2.73,4.2-5.56,6.25-8.54  l1.88-2.74l0.81,3.22c1.63,6.54,6.17,12.22,11.85,14.82c3.33,1.53,8.57,2.7,14.64-0.35c4.06-2.06,7.97-5.34,11.94-10.01l4.32-5.09  l-1.73,6.45c-2.01,7.48-2.53,14.63-1.55,21.23c1.67,10.91,10.24,26,24.16,26.02c-0.06-0.85-0.25-2.28-0.35-3  c-2.68-19.47-0.22-39.5,7.73-63.05l0.06-0.19l0.11-0.17c7.31-10.8,12.97-16.63,17.3-17.83l2.1-0.58l-0.2,2.17  c-0.33,3.55-4.39,11.95-8.32,20.08c-2.4,4.98-4.68,9.68-5.76,12.59c-1.73,4.72-3.12,16.31,0.51,20.69c1.21,1.46,2.9,1.99,5.18,1.62  l0.19-0.03l0.2,0.02c3.22,0.31,6.67-2.35,9.62-5c5.37-5.03,9.8-11.04,13.07-15.7l2.2-3.14l0.52,3.8c0.37,2.68,1.35,5.06,2.92,7.07  c3.45,4.45,9.09,5.91,14.39,3.72c3.66-1.53,7.01-4.36,10.53-8.9l2.36-3.04l0.33,3.84c0.06,0.66,0.17,1.28,0.29,1.93  c0.88,4.58,3.63,9.2,8.7,8.67c5.06-0.5,8.62-5.11,11.75-9.17c1.94-2.52,3.52-4.67,4.96-6.78l2.84-4.16l-0.1,5.04  c-0.07,3.16,0.32,5.82,1.17,8.12c1.5,4.05,5.51,8.1,10.8,7.39c7.82-1.08,26.58-32.13,34.89-48.51l0.74-1.45l1.39,0.85  c0.86,0.53,1.57,0.84,2.3,1.03l1.94,0.48l-1.01,1.73c-2.03,3.48-3.42,7.69-4.65,11.39c-0.32,0.98-0.63,1.91-0.93,2.78  c-0.3,0.87-0.62,1.78-0.96,2.73c-3.54,10-8.39,23.68,1.55,29.28c5.98,3.4,13.96,2.59,19.87-2.03c4.87-3.82,6.42-9.12,6.49-15.75  c-2.32,4.21-5.5,8.26-7.79,7.97c-0.44-0.05-1.87-0.39-2-2.6c-0.4-7.62,2.44-15.14,5.18-22.42c2.22-5.88,4.31-11.43,4.83-16.99  c0.25-2.66-0.31-4.59-1.67-5.74c-2.12-1.81-6.26-1.99-11.98-0.51c-0.7,0.18-1.39,0.4-2.11,0.63c-1.31,0.42-2.66,0.86-4.07,0.99  l-4.05,0.4l2.82-2.93c4.17-4.32,8.08-11.44,6.58-18.46c-0.62-2.72-2.49-5.77-5.84-6.1c-2.51-0.2-5.09,1.66-7.58,5.53  c-2.86,4.32-4.05,9.85-3.26,15.18l0.02,0.16l-0.01,0.17c-0.06,0.75,0,1.45,0.06,2.16c0.11,1.61,0.49,3.25,1.1,4.77l0.25,0.61  l-0.29,0.6c-2.72,5.64-8.33,15.32-14.27,24.67c-10.33,16.25-11.32,15.91-12.57,15.46c-0.34-0.12-1.42-0.66-0.98-2.45  c0.1-0.4,9.38-36.86,16.9-45.65c-2.69-1.64-6.23-2.29-9.78-1.76c-3.74,0.56-6.9,2.34-8.45,4.76c-3.14,4.87-5.96,10.59-8.69,16.13  c-1.13,2.3-2.2,4.47-3.27,6.54c-1.38,2.4-2.86,4.88-4.55,7.63c-0.41,0.61-0.77,1.19-1.13,1.77c-0.37,0.59-0.73,1.18-1.12,1.76  c-1.49,2.06-2.94,3.81-4.48,5.4c-0.08,0.08-0.15,0.14-0.21,0.23l-4.25,6.39l1.53-7.52c1.48-7.26,3.07-13.1,5-18.39  c3.26-9.03,8.2-16.67,12.58-23.12l-0.22-0.3c-6.27-5.07-13.58,1.51-17.41,5.92l-1.13,1.31l-1.13-1.31  c-3.93-4.54-12.25-6.62-18.55-4.62c-11.8,3.72-18.94,17.16-22.85,27.77l-0.07,0.18l-0.11,0.16c-1.73,2.47-3.34,5.07-4.9,7.59  c-1.35,2.19-2.63,4.26-3.96,6.2c-1.18,1.77-2.51,3.68-3.95,5.67l-7.5,10.36l4.9-11.81c1.27-3.06,2.58-6.12,3.9-9.19  c0.92-2.14,1.84-4.3,2.75-6.46l0.46-1.09c3.21-7.58,7.6-17.95,4.42-25.34c-2.96-6.71-10.13-4.89-12.26-4.17  c-4.36,1.47-8.86,4.27-13.01,8.1l-5.13,4.72l2.73-6.41c3.76-8.82,7.9-17.72,12.33-26.43c0.37-0.68,0.66-1.32,0.97-2l0.46-1  l1.1,0.11c8.5,1.04,19.3,1.42,27.38-5c5.99-4.75,8.33-15.62,4.57-21.16c-3.17-4.66-7.17-7.03-11.91-7.03c0,0,0,0-0.01,0  c-8.98,0-20.7,8.7-29.86,22.16l-0.65,0.95l-1.09-0.38c-3.27-1.15-6.55-2.3-9.83-3.46c-12.63-4.45-25.68-9.05-38.57-13.18  c-14.98-4.85-32.59-9.36-49.72-5.97c-5.46,1.06-23.56,5.77-27.13,21.65c-1.9,8.53-0.99,15.04,2.72,19.36  c4.8,5.59,13.21,6.21,16.96,6.15c-0.6-10.24,6.87-19.73,14.64-23.7c19.3-9.84,44.33-3.55,66.27,3.13c2.36,0.72,4.78,1.52,7.12,2.28  c3.22,1.06,6.55,2.15,9.83,3.09l1.93,0.56l-1.09,1.69c-6.05,9.44-11.98,19.11-17.72,28.47c-4.45,7.26-9.05,14.77-13.68,22.11  l-0.12,0.16c-0.3,0.37-0.59,0.73-0.88,1.1c-0.31,0.39-0.62,0.79-0.96,1.18c-3.11,3.86-9.61,11.91-16.15,11.91  c-0.02,0-0.05,0-0.07,0c-2.63-0.02-4.94-1.3-6.88-3.78c-4.18-5.42-2.5-14.78,0.21-21.16c2.6-6.12,7.49-12.89,13.41-13.54l1.25-0.14  l0.36,1.2c1.2,4.05,0.07,10.43-2.68,15.18c-1.44,2.48-3.17,4.21-5.05,5.09c0.53,1.44,1.92,3.38,4.01,4.05  c2.84,0.91,6.11-0.84,9.47-5.07c3.32-4.14,4.83-10.56,3.93-16.77c-0.7-4.8-2.91-8.01-6.56-9.55c-5.45-2.3-13.86-0.56-20.45,4.22  c-7.28,5.25-13.18,12.94-16.19,21.09l-0.14,0.29c-1.01,1.58-2.19,3.22-3.81,5.3l-0.07,0.09c-1.37,1.68-2.78,3.41-4.32,5.07  l-3.95,4.28l1.74-6.96c1.79-6.04,3.64-12.28,4.3-18.5c0.63-5.99-1.18-11.7-4.51-14.2c-2.31-1.74-5.26-1.89-8.76-0.46  c-3.77,1.53-7.68,4.41-11.64,8.57l-3.26,3.43l0.69-4.68c0.3-2.05,0.28-4.06-0.06-5.98c-0.54-2.98-1.99-5.23-4.2-6.5  c-2.61-1.5-6.19-1.59-9.82-0.27c-8.02,2.95-16.01,10.5-20.37,16.68l-2.21,3.13l-0.5-3.8c-0.98-7.38-5.13-15.22-13.83-15.53  c1.5,5.73,1.34,11.22-0.49,16.29c-1.95,5.4-6.51,14.17-12.2,23.44c-9.23,15.04-10.61,14.7-11.62,14.45  c-0.15-0.04-1.48-0.42-1.23-2.14c0.78-5.47,2.86-11.39,4.88-17.12c3.05-8.69,6.21-17.67,4.47-24.4c-0.38-1.33-1-2.92-1.52-3.92  c-0.98-1.87-2.39-3.1-4.07-3.55c-1.71-0.46-3.67-0.11-5.4,0.96l-0.14,0.08c-1.88,0.9-3.75,1.99-5.55,3.03  c-1.31,0.76-2.66,1.54-4.02,2.26l-5.52,2.92l3.59-5.11c2.87-4.08,4.91-8.44,5.91-12.59l0.12-0.44c0.57-2.36,0.77-4.51,0.6-6.56  c-0.29-4.16-3-7.89-6.58-9.08c-3.79-1.31-7.55,0.44-11.19,5.19c-4.46,5.86-7.62,16.17-5.01,24.54l0.2,0.63l-0.33,0.57  c-2.62,4.5-5.86,9.05-9.65,13.51l-0.11,0.12c-9.08,8.65-17.8,15.14-26.67,19.87l-2.48,1.32l0.28-2.79  c1.21-12.01,3.9-25.05,8.47-41.04c0.1-0.33,10.19-29.86,13.72-38.52c-28.19-2.47-45.93,24.54-61.63,48.44  c-1.21,1.85-2.41,3.67-3.59,5.45c-6.26,9.53-12.32,19.54-17.5,28.18l-0.85,1.42l-1.33-0.99c-8.13-6.04-13.82-16.13-15.26-26.6  c-2.46,5.91-1.75,13.66-1.23,17.21c1.24,8.02,4.75,15.37,10.13,21.24l0.77,0.84l-0.61,0.97c-0.88,1.4-1.87,2.99-2.76,4.52  l-1.07,1.75c-4.92,8.04-10,16.36-18.41,21.15c-5.62,3.15-9.4,3.39-15.01,0.96c-5.18-2.19-8.44-7.37-9.19-14.58  c-0.22-2.41,0.28-5.73,1.37-9.13l0.99-3.08l0.11,0.18c2.09-4.98,5.44-9.73,9.65-10.48c1.93-0.34,4.84,0.05,7.8,3.82  c0.09-0.85,0.02-1.91-0.3-3.1c-0.88-3.3-3.55-7.18-8.43-8.18c-0.58-0.09-1.28-0.16-2.14-0.2l-0.42-0.02  c-0.75-0.02-1.44-0.02-2.1,0.03l-0.12,0.01c-0.7,0.05-1.44,0.13-2.19,0.25l-0.54,0.1c-0.53,0.1-1.07,0.21-1.6,0.34l-0.21,0.05  c-0.17,0.04-0.34,0.08-0.51,0.12c-0.6,0.16-1.2,0.34-1.8,0.54c-0.43,0.14-0.84,0.3-1.26,0.46l-0.58,0.22  c-1.57,0.63-3.09,1.35-4.53,2.15l-0.8,0.49c-2.21,1.3-4.35,2.8-6.34,4.46c-15.67,13.09-20.08,38.18-9.63,54.78  c5.14,8.18,13.01,13.57,22.16,15.17c9.45,1.65,19.46-0.97,27.44-7.2c9.75-7.63,16.35-19.03,21.66-28.19  c0.7-1.2,1.39-2.42,2.09-3.64c0.7-1.22,1.4-2.44,2.09-3.64c2.5-3.84,4.87-7.76,7.17-11.55l0.64-1.05l1.16,0.42  c7.54,2.76,16.46,3.29,26.52,1.58L166.59,167z M542.28,104.01c0,0.04,0,0.09,0.01,0.13L542.28,104.01z M284.7,99.31  C284.7,99.31,284.7,99.31,284.7,99.31L284.7,99.31z M158.36,152.48c-3.85,0-7.56-0.34-11.1-1.03l-2.03-0.39l1.05-1.9  c1.59-2.88,3.24-5.86,4.93-8.8c9.39-20.52,24.56-45.12,35.29-57.23l7.49-8.45l-5.02,10.12c-9.94,20.02-18.19,45.89-21.01,65.9  l-0.16,1.14l-1.15,0.14C163.83,152.32,161.06,152.48,158.36,152.48z M495.88,149.88c-0.67,0-1.29-0.23-1.79-0.68  c-1.48-1.35-1.23-4.42,0.88-10.95l0.08-0.26c2.8-8.47,11.99-24.73,21.52-25.78l2-0.22l-0.36,1.98c-1.33,7.27-4.9,13.26-8.36,19.05  l-0.26,0.45c-8.08,13.93-11.33,16.07-13.26,16.38C496.19,149.87,496.03,149.88,495.88,149.88z M472.77,76.2  c-0.64,0-1.27-0.02-1.86-0.07l-4.02-0.44l1.12-1.98c2.54-4.49,5.77-9.55,10.47-13.06c2.67-2.03,5.4-2.48,7.51-1.26  c2.1,1.23,3.15,3.87,2.73,6.9C487.75,73.71,479.25,76.2,472.77,76.2z"></path></g><path class="st3" d="M693.84,262.97L693.84,262.97L693.84,262.97z"></path><path class="st3" d="M652.21,250.19c0,0.01-0.01,0.02-0.02,0.02C652.2,250.21,652.2,250.2,652.21,250.19z"></path><g>	<path class="st2" d="M298.83,253.05l0.72,2.66c1,3.68,1.92,7.43,2.9,11.41c5.98,24.29,12.76,51.82,38.23,57.81  c17.12,4.03,33.89-1.4,40.77-13.22c5.6-9.61,3.08-21.38-6.91-32.35c-0.34,4.59-2.34,8.4-5.79,11.03  c-5.88,4.47-14.45,4.62-20.51,3.27c-9.68-2.14-17.68-8.25-23.13-17.68c-1.82-3.2-3.38-6.54-4.89-9.78  c-1.78-3.82-3.62-7.77-5.85-11.39l-1.59-2.58l3.02,0.3c12.89,1.28,25.36-3.8,33.39-13.58c12.34-15.03,11.33-37.54-2.31-51.24  c-11.83-11.83-30.31-15.96-56.49-12.61c-2.47,0.32-5.11,0.71-7.91,1.12c-17.77,2.62-39.89,5.88-51.74-4.67  c-5.22-4.64-7.94-11.62-8.09-20.76c-6.89,3.41-11.65,9.4-13.2,16.73c-1.71,8.07,0.86,16.53,6.86,22.65  c13.45,13.62,33.97,10.69,54.15,5.49c11.66-3.04,24.26-6.01,37.34-7.2c5.22-0.41,9.43-0.36,13.25,0.13l4.36,0.57l-3.79,2.21  c-9.41,5.49-17.26,16.34-22.46,23.52c-7.69,10.65-14.42,18.74-21.18,25.45c-3.56,3.5-8.94,8.79-15.26,9.79  c-5.63,0.82-8.23-2.19-8.75-5c-0.77-4.14,2.23-9.29,8.56-11.35c-1.17-3.34-5.06-5.9-10.52-6.82c-10.05-1.69-23.25,2.56-29.02,13.94  c-4.71,9.32-4.52,22.07,0.49,31.72c2.67,5.15,7.85,11.58,17.33,12.97c23.84,3.58,46.14-18.83,54.62-28.62  c0.24-0.27,0.47-0.54,0.71-0.82c0.29-0.34,0.58-0.69,0.89-1.04L298.83,253.05z M311.03,235.86l1.71-2.62  c1.03-1.58,2.07-3.22,3.1-4.86l0.11-0.18c1.01-1.6,2.07-3.49,3.19-5.48c4.92-8.71,11.03-19.56,20.49-22.02l1.23-0.32l0.52,1.17  c4.44,10.04-1.53,22.14-9.88,28.04c-4.74,3.33-10.42,5.29-17.37,5.97L311.03,235.86z"></path>	<path class="st2" d="M439.95,259.02l-0.16,4.1c-0.06,1.67,0.09,3.2,0.46,4.55c1.71,6.95,7.87,11.8,13.18,15.07  c0.44-3.83,2.21-9.46,4.15-15.4c0.62-1.91,1.16-3.55,1.42-4.54l1.64-6.16l1.28,6.25c1.1,5.34,3.17,8.89,6.35,10.87  c5.56,3.39,12.04,1,16.25-2.37c4.55-3.68,9.46-9.05,13.12-14.37l2.52-3.66l0.21,4.44c0.17,3.62,1.54,7.38,3.75,10.31  c4.84,6.31,13.97,8.48,21.7,5.16c10.02-4.32,11.56-15.62,11.76-20.28c0.18-4.33-0.19-8.79-0.54-13.1c-0.15-1.79-0.29-3.58-0.4-5.36  c-0.07-0.93-0.17-1.89-0.26-2.86c-0.25-2.5-0.51-5.08-0.37-7.63c0.14-2.55,1.24-7.79,4.36-9.29c0.71-0.34,1.71-0.58,2.93-0.24  c-0.89-2.14-2.44-3.59-4.61-4.33c-4.84-1.63-11.71,0.66-15.56,3.83c-4.43,3.6-7.57,8.7-10.62,13.63l-0.27,0.43  c-2.11,3.42-4.48,6.79-6.77,10.05c-0.63,0.9-1.26,1.79-1.88,2.69c-0.72,1.01-1.42,2.01-2.13,3.01c-2.04,2.9-4.15,5.9-6.34,8.75  c-0.64,0.77-1.24,1.55-1.87,2.43l-0.1,0.12c-0.24,0.27-0.47,0.55-0.7,0.82c-0.25,0.29-0.49,0.59-0.75,0.88  c-7.02,8.07-13.12,6.06-17,2.96c-1.92-1.51-3.76-3.73-5.78-6.96l-1.82-2.91l3.37,0.64c5.39,1.02,11.42-0.71,16.98-4.87  c7.29-5.46,12.51-14.06,13.29-21.92c0.44-4.36-0.9-8.27-3.48-10.19c-2.2-1.64-5.15-1.77-8.51-0.37c-3.13,1.29-6.17,3.35-9.02,6.15  l-5.7,5.57l4.42-9.75c1.11-2.45,2.27-4.98,3.36-7.5c4.4-10.35,5.06-18.47,2.08-25.54c-1.11-2.71-5.32-11.19-13.69-9.59  c9.79,6.82,0.61,25.01-4.35,34.84c-0.66,1.3-1.24,2.46-1.7,3.42c-4.84,10.17-8.46,15.53-13.04,22.32c-1.92,2.84-3.9,5.78-6.23,9.44  l-0.07,0.09c-0.29,0.39-0.6,0.78-0.91,1.17c-0.29,0.37-0.59,0.74-0.86,1.11l-0.12,0.14c-3.39,4.14-9.69,11.83-16.1,11.83  c-0.03,0-0.07,0-0.1,0c-2.61-0.03-4.91-1.3-6.84-3.78c-4.18-5.37-2.67-14.39,0.14-21.05c2.61-6.17,7.52-13,13.48-13.65l1.25-0.14  l0.35,1.2c1.21,4.12,0.78,7.68-1.49,12.29c-0.17,0.34-0.33,0.69-0.5,1.04c-1.38,2.9-2.93,6.18-6.7,7.29  c-0.15,0.58-0.22,1.87,0.36,3.06c0.64,1.33,1.88,2.15,3.69,2.42c4.48,0.66,8.07-3.3,10.29-6.74c3.28-5.01,4.76-11.33,3.96-16.89  c-0.68-4.79-2.87-8-6.5-9.54c-5.44-2.31-13.85-0.57-20.45,4.21c-4.68,3.38-7.83,6.83-11.17,10.48c-2.49,2.72-5.06,5.54-8.31,8.32  l-3.66,3.13l1.24-4.66c1.02-3.85,0.39-10.33-1.33-13.6c-2.06-3.99-4.76-6.12-8.27-6.5c-8.07-0.86-18.55,7.91-23.63,14.04  c-6.63,7.89-10.46,17.01-10.8,25.69c-1.35,13.37,6.13,17.87,10.28,18.4c9.17,1.16,18.32-6.47,27.18-22.66l0.3-0.54l0.59-0.18  c1.47-0.44,2.9-1.06,3.92-1.72c1.07-0.71,2.1-1.5,3.06-2.34l3.03-2.65l-0.55,3.99c-0.36,2.59-0.36,5.23,0,7.82  c1,7.15,5.38,13.57,11.45,16.75c4.94,2.59,10.43,2.62,15.46,0.1c3.58-1.76,7.05-4.53,10.65-8.47L439.95,259.02z M370.07,259.91  c-1.04,0-1.96-0.53-2.61-1.52c-2.21-3.38-1.3-12.81,4.04-22.76c3.48-6.59,8.88-12.3,13.09-10.18c2.38,1.2,3.89,5.22,0.35,12.62  l-0.41,0.85h-0.94c-0.35,0-0.69,0.06-1.05,0.18l-0.12,0.04c-1.74,0.42-3.28,1.53-4.13,2.97c-1.13,1.91-1.24,4.96-0.25,7.09  l0.29,0.62l-0.28,0.62c-2.74,6.17-5.27,9.26-7.73,9.46C370.24,259.91,370.15,259.91,370.07,259.91z M514.19,263.03  c-1.36,0.05-2.72-0.27-3.92-0.95c-1.72-0.97-5.53-4.13-3.83-12.57l0.08-0.38l0.27-0.32c2.73-3.31,5.5-7.03,8.72-11.7l3.18-4.62  l0.85,5.2c0.26,1.58,0.62,3.19,0.96,4.76c0.76,3.41,1.54,6.94,1.42,10.53c0.24,4.37-1.57,7.87-4.83,9.36  C516.17,262.77,515.18,263,514.19,263.03z M469.89,244.26l-0.35-0.18c-0.07-0.02-0.18-0.06-0.33-0.14l-1.53-0.79l0.99-1.41  c3.86-5.51,7.86-11.21,13.3-15.67c1.65-1.45,3.62-2.58,5.85-3.37l0.2-0.07l0.21-0.01c1.37-0.1,1.96,0.62,2.19,1.04  c0.55,1.02,0.07,2.12-0.55,3.03c-0.17,2.58-2.28,5.76-4.28,8.57l-0.17,0.23c-3.79,5.44-8.88,8.39-15.13,8.73L469.89,244.26z"></path>	<path class="st2" d="M620.44,266.95l0.32,3.76c0.06,0.71,0.18,1.38,0.31,2.08l0.05,0.26c1.04,5.28,4.35,10.72,10.58,10.08  c4.79-0.47,8.41-3.95,11.03-6.94c10.98-11.5,27.37-42.13,31.15-49.71l0.71-1.42l1.38,0.79c0.75,0.43,1.53,0.78,2.45,1.08l1.73,0.58  l-0.9,1.59c-2.12,3.73-3.63,8.39-4.85,12.13c-0.23,0.71-0.45,1.39-0.67,2.03c-0.27,0.78-0.56,1.57-0.85,2.38  c-3.65,10.12-8.64,23.99,1.37,29.65c6.13,3.46,13.95,2.64,19.92-2.09c5.04-3.91,6.43-9.65,6.5-15.79  c-2.36,4.25-5.61,8.32-7.87,8.06c-0.43-0.05-1.86-0.4-1.98-2.59c-0.4-7.61,2.45-15.14,5.21-22.41c2.23-5.88,4.34-11.44,4.86-17  c0.23-2.66-0.34-4.59-1.7-5.75c-2.11-1.8-6.26-2-11.99-0.57c-0.63,0.18-1.24,0.38-1.85,0.58c-1.37,0.45-2.78,0.92-4.3,1.1  l-4.17,0.52l2.9-3.04c5.43-5.7,7.89-12.63,6.59-18.52c-0.55-2.62-2.4-5.77-5.81-6.05c-2.54-0.26-4.99,1.57-7.55,5.52  c-2.9,4.29-4.1,9.82-3.32,15.18l0.02,0.22c0,0.81,0,1.58,0.06,2.28c0.16,1.59,0.56,3.18,1.17,4.7l0.24,0.61l-0.29,0.59  c-2.47,5.12-11.13,18.26-18.4,29.13l-0.37,0.55l-0.13,0.02c-0.38,0.58-0.74,1.13-1.09,1.68c-0.44,0.68-0.87,1.37-1.33,2.03  c-1.74,2.35-3.45,4.35-5.26,6.19c-0.15,0.14-0.21,0.21-0.28,0.31l-4.24,6.17l1.54-7.32c1.75-8.37,3.63-15.09,5.9-21.16  c3.84-10.38,9.68-19.17,14.84-26.59c0.05-0.07,0.06-0.1,0.06-0.11l0,0c0,0-0.02-0.06-0.1-0.17l-0.24-0.32  c-7.62-6.04-16.43,1.65-21.02,6.82l-1.12,1.26l-1.12-1.26c-4.71-5.31-14.68-7.74-22.24-5.4c-7.02,2.16-13.48,8.67-17.66,13.76  c-5.17,6.29-9.11,13.16-10.72,17.18l-0.13,0.31l-0.25,0.23c-15.65,14.52-17.41,13.54-18.69,12.84c-0.52-0.29-1.35-1.04-1.01-2.82  c0.94-4.7,2.3-9.65,4.42-16.08c1.43-4.25,3.03-8.51,4.59-12.62c2.32-6.15,4.73-12.51,6.54-18.91c0.23-0.77,0.46-1.53,0.71-2.31  c0.51-1.65,1.04-3.35,1.5-5.13l0.41-1.55l1.52,0.51c0.98,0.33,1.97,0.62,2.93,0.9l0.96,0.29c24.69,6.8,35.64-0.35,39.96-5.21  c4.7-5.28,6.08-12.76,3.53-19.04c-1.58-3.88-4.4-6.51-7.93-7.46c1.24,5.78-0.26,11.09-4.31,15.14c-7.25,7.24-21.02,9.12-34.25,4.68  l-0.92-0.31l-0.09-0.97c-0.25-2.55-1.02-4.82-2.29-6.72c-3.46-5.13-10.72-10.49-17.34-11.32c1.19,3.64,1.02,7.95-0.53,11.98  l-0.57,1.47l-2.95-1.31c-2.15-0.95-4.37-1.94-6.61-2.86c-10.61-4.37-23.14-8.46-35.64-5.69c-8.48,1.87-17.89,8.22-19.81,18.19  c-2.2,11.26,3.28,15.78,6.86,16.68c1.73,0.43,2.88,0.02,3.02-0.43c4-12.66,23.32-18.34,35.75-18.34c5.01,0,10.25,0.76,16.03,2.33  l1.56,0.42l-0.54,1.52c-1.85,5.25-4.3,10.35-6.67,15.28c-1.57,3.27-3.06,6.36-4.31,9.36l-0.97,2.27  c-5.39,12.61-12.09,28.31-9.83,42.05c0.96,5.65,4.21,10.22,8.91,12.53c4.57,2.25,10.01,2.04,14.93-0.57  c3.04-1.62,8.52-7.08,15.01-14.99l2.98-3.62l-0.32,4.67c-0.17,2.5-0.23,5.61-0.23,5.64c0,2.76,2.29,8.65,4.37,11.23  c4.15,5.23,10.97,6.94,17.36,4.36c4.39-1.78,8.38-5.07,12.56-10.34L620.44,266.95z M611.76,264.98c-0.68,0-1.32-0.25-1.83-0.72  c-1.49-1.41-1.22-4.65,0.95-11.58l0.07-0.24c2.88-9.03,12.3-26.34,22.08-27.45l2-0.23l-0.35,1.98c-1.37,7.73-5.03,14.1-8.57,20.27  l-0.27,0.48c-8.31,14.87-11.64,17.13-13.62,17.45C612.07,264.97,611.91,264.98,611.76,264.98z"></path></g></svg>