<?xml version="1.0" encoding="utf-8"?>
<!-- Generator: Adobe Illustrator 21.0.0, SVG Export Plug-In . SVG Version: 6.00 Build 0)  -->
<svg version="1.1" id="Layer_1" xmlns="http://www.w3.org/2000/svg" xmlns:xlink="http://www.w3.org/1999/xlink" x="0px" y="0px"
	 viewBox="0 0 473 59.3" style="enable-background:new 0 0 473 59.3;" xml:space="preserve">
<style type="text/css">
	.st0{enable-background:new    ;}
	.st1{fill:#FFFFFF;}
</style>
<g>
	<g class="st0">
		<path class="st1" d="M125.8,16.9c-0.6-0.8-1.5-1.4-2.5-1.7s-2.1-0.6-3-0.6c-0.6,0-1.1,0.1-1.7,0.2c-0.6,0.1-1.1,0.3-1.7,0.6
			c-0.5,0.3-0.9,0.6-1.3,1.1c-0.3,0.5-0.5,1-0.5,1.7c0,1,0.4,1.8,1.2,2.4c0.8,0.6,1.8,1,3,1.4c1.2,0.4,2.5,0.8,3.8,1.2
			c1.4,0.4,2.7,0.9,3.8,1.7c1.2,0.7,2.2,1.7,3,2.9c0.8,1.2,1.2,2.8,1.2,4.9c0,1.9-0.4,3.6-1.1,5c-0.7,1.4-1.7,2.6-2.9,3.6
			c-1.2,0.9-2.6,1.7-4.3,2.1c-1.6,0.5-3.3,0.7-5.1,0.7c-2.3,0-4.3-0.3-6.3-1c-1.9-0.7-3.7-1.8-5.4-3.3l5.4-6c0.8,1,1.8,1.9,3,2.4
			c1.2,0.6,2.4,0.9,3.7,0.9c0.6,0,1.2-0.1,1.9-0.2c0.6-0.1,1.2-0.4,1.7-0.7c0.5-0.3,0.9-0.7,1.2-1.1c0.3-0.5,0.5-1,0.5-1.6
			c0-1-0.4-1.9-1.2-2.5c-0.8-0.6-1.8-1.1-3-1.5c-1.2-0.4-2.5-0.8-3.9-1.3c-1.4-0.4-2.7-1-3.9-1.7c-1.2-0.7-2.2-1.7-3-2.8
			c-0.8-1.2-1.2-2.7-1.2-4.7c0-1.9,0.4-3.5,1.1-4.9c0.7-1.4,1.7-2.6,2.9-3.5c1.2-0.9,2.6-1.7,4.2-2.1c1.6-0.5,3.3-0.7,4.9-0.7
			c2,0,3.9,0.3,5.7,0.8c1.8,0.6,3.5,1.5,4.9,2.8L125.8,16.9z"/>
		<path class="st1" d="M143.5,15.2h-9.9V8.5h27.4v6.8h-9.9v27.9h-7.6V15.2z"/>
		<path class="st1" d="M194.2,29.8c0,2.1-0.3,4-0.9,5.7c-0.6,1.7-1.5,3.2-2.8,4.5c-1.2,1.3-2.8,2.3-4.6,3c-1.8,0.7-3.9,1.1-6.3,1.1
			c-2.4,0-4.5-0.4-6.4-1.1c-1.8-0.7-3.4-1.7-4.6-3c-1.2-1.3-2.1-2.8-2.8-4.5c-0.6-1.7-0.9-3.6-0.9-5.7V8.5h7.6v21
			c0,1.1,0.2,2.1,0.5,3c0.3,0.9,0.8,1.7,1.4,2.4c0.6,0.7,1.4,1.2,2.2,1.6c0.9,0.4,1.8,0.6,2.8,0.6c1,0,1.9-0.2,2.8-0.6
			c0.8-0.4,1.6-0.9,2.2-1.6c0.6-0.7,1.1-1.5,1.4-2.4c0.3-0.9,0.5-1.9,0.5-3v-21h7.6V29.8z"/>
		<path class="st1" d="M201.2,8.5h11.5c2.8,0,5.4,0.3,7.9,0.9c2.5,0.6,4.7,1.6,6.5,3c1.9,1.4,3.3,3.2,4.4,5.4
			c1.1,2.2,1.6,4.9,1.6,8.1c0,2.8-0.5,5.3-1.6,7.4c-1.1,2.1-2.5,3.9-4.3,5.4c-1.8,1.5-3.9,2.6-6.2,3.3c-2.4,0.8-4.8,1.1-7.4,1.1
			h-12.5V8.5z M208.9,36.1h4c1.8,0,3.4-0.2,4.9-0.5s2.8-1,3.9-1.8c1.1-0.8,2-1.9,2.6-3.3c0.6-1.4,1-3,1-5c0-1.7-0.3-3.2-1-4.4
			c-0.6-1.3-1.5-2.3-2.6-3.1s-2.3-1.4-3.8-1.8c-1.5-0.4-3-0.6-4.6-0.6h-4.5V36.1z"/>
		<path class="st1" d="M238.3,8.5h7.6v34.7h-7.6V8.5z"/>
		<path class="st1" d="M251.1,25.8c0-2.8,0.5-5.3,1.4-7.5c0.9-2.3,2.2-4.2,3.9-5.8c1.7-1.6,3.6-2.8,5.9-3.7c2.3-0.8,4.8-1.3,7.5-1.3
			c2.7,0,5.2,0.4,7.5,1.3s4.3,2.1,5.9,3.7c1.7,1.6,3,3.5,3.9,5.8c0.9,2.3,1.4,4.8,1.4,7.5s-0.5,5.3-1.4,7.5
			c-0.9,2.3-2.2,4.2-3.9,5.8c-1.7,1.6-3.6,2.8-5.9,3.7c-2.3,0.8-4.8,1.3-7.5,1.3c-2.7,0-5.2-0.4-7.5-1.3c-2.3-0.8-4.3-2.1-5.9-3.7
			c-1.7-1.6-3-3.5-3.9-5.8C251.5,31.1,251.1,28.6,251.1,25.8z M259,25.8c0,1.6,0.3,3.1,0.8,4.5s1.2,2.5,2.2,3.5
			c0.9,1,2.1,1.8,3.4,2.3c1.3,0.6,2.8,0.8,4.4,0.8s3.1-0.3,4.4-0.8c1.3-0.6,2.5-1.3,3.4-2.3c0.9-1,1.7-2.2,2.2-3.5s0.8-2.8,0.8-4.5
			c0-1.6-0.3-3.1-0.8-4.5s-1.2-2.6-2.2-3.6c-0.9-1-2.1-1.8-3.4-2.3c-1.3-0.6-2.8-0.8-4.4-0.8s-3.1,0.3-4.4,0.8
			c-1.3,0.6-2.5,1.3-3.4,2.3c-0.9,1-1.7,2.2-2.2,3.6S259,24.2,259,25.8z"/>
		<path class="st1" d="M325.4,16.9c-0.6-0.8-1.5-1.4-2.5-1.7s-2.1-0.6-3-0.6c-0.6,0-1.1,0.1-1.7,0.2c-0.6,0.1-1.1,0.3-1.7,0.6
			c-0.5,0.3-0.9,0.6-1.3,1.1c-0.3,0.5-0.5,1-0.5,1.7c0,1,0.4,1.8,1.2,2.4c0.8,0.6,1.8,1,3,1.4c1.2,0.4,2.5,0.8,3.8,1.2
			c1.4,0.4,2.7,0.9,3.8,1.7c1.2,0.7,2.2,1.7,3,2.9c0.8,1.2,1.2,2.8,1.2,4.9c0,1.9-0.4,3.6-1.1,5c-0.7,1.4-1.7,2.6-2.9,3.6
			c-1.2,0.9-2.6,1.7-4.3,2.1c-1.6,0.5-3.3,0.7-5.1,0.7c-2.3,0-4.3-0.3-6.3-1c-1.9-0.7-3.7-1.8-5.4-3.3l5.4-6c0.8,1,1.8,1.9,3,2.4
			c1.2,0.6,2.4,0.9,3.7,0.9c0.6,0,1.2-0.1,1.9-0.2c0.6-0.1,1.2-0.4,1.7-0.7c0.5-0.3,0.9-0.7,1.2-1.1s0.5-1,0.5-1.6
			c0-1-0.4-1.9-1.2-2.5c-0.8-0.6-1.8-1.1-3-1.5c-1.2-0.4-2.5-0.8-3.9-1.3c-1.4-0.4-2.7-1-3.9-1.7c-1.2-0.7-2.2-1.7-3-2.8
			c-0.8-1.2-1.2-2.7-1.2-4.7c0-1.9,0.4-3.5,1.1-4.9c0.7-1.4,1.7-2.6,2.9-3.5c1.2-0.9,2.6-1.7,4.2-2.1s3.3-0.7,4.9-0.7
			c2,0,3.9,0.3,5.7,0.8c1.8,0.6,3.5,1.5,4.9,2.8L325.4,16.9z"/>
		<path class="st1" d="M336.6,8.5h23.6v7.1h-15.9V22h15V29h-15v7.1h16.8v7.1h-24.5V8.5z"/>
		<path class="st1" d="M367.1,8.5h7.6v34.7h-7.6V8.5z"/>
		<path class="st1" d="M379.9,36.1l17.6-20.9h-17V8.5h26.2v6.8l-17.2,20.9h17.8v7.1h-27.4V36.1z"/>
		<path class="st1" d="M412.6,8.5h7.6v12.9h14.8V8.5h7.6v34.7h-7.6v-15h-14.8v15h-7.6V8.5z"/>
	</g>
	<g class="st0">
		<path class="st1" d="M449.7,17.5c0-1.2,0.2-2.4,0.7-3.5c0.5-1.1,1.1-2,1.9-2.9s1.8-1.5,2.9-1.9c1.1-0.5,2.3-0.7,3.5-0.7
			s2.4,0.2,3.5,0.7c1.1,0.5,2,1.1,2.9,1.9c0.8,0.8,1.5,1.8,1.9,2.9c0.5,1.1,0.7,2.3,0.7,3.5s-0.2,2.4-0.7,3.5
			c-0.5,1.1-1.1,2-1.9,2.9c-0.8,0.8-1.8,1.5-2.9,1.9c-1.1,0.5-2.3,0.7-3.5,0.7s-2.4-0.2-3.5-0.7c-1.1-0.5-2-1.1-2.9-1.9
			s-1.5-1.8-1.9-2.9C450,19.9,449.7,18.7,449.7,17.5z M452.2,17.5c0,0.9,0.2,1.8,0.5,2.7c0.3,0.8,0.8,1.6,1.4,2.2
			c0.6,0.6,1.3,1.1,2.1,1.5c0.8,0.4,1.6,0.5,2.5,0.5s1.8-0.2,2.5-0.5c0.8-0.4,1.5-0.9,2.1-1.5c0.6-0.6,1.1-1.3,1.4-2.2
			c0.3-0.8,0.5-1.7,0.5-2.7s-0.2-1.8-0.5-2.7c-0.3-0.8-0.8-1.6-1.4-2.2c-0.6-0.6-1.3-1.1-2.1-1.5c-0.8-0.4-1.6-0.5-2.5-0.5
			s-1.8,0.2-2.5,0.5c-0.8,0.4-1.5,0.9-2.1,1.5c-0.6,0.6-1.1,1.3-1.4,2.2C452.4,15.7,452.2,16.5,452.2,17.5z M455.3,12.7h3.3
			c0.3,0,0.6,0,1.1,0c0.5,0,0.9,0.1,1.3,0.3c0.4,0.2,0.8,0.5,1.1,0.9c0.3,0.4,0.5,1,0.5,1.8c0,0.5-0.1,0.9-0.2,1.2
			c-0.1,0.3-0.3,0.6-0.5,0.8c-0.2,0.2-0.4,0.4-0.7,0.5c-0.3,0.1-0.5,0.2-0.8,0.2l2.4,3.8h-2.5l-2.2-3.6h-0.4v3.6h-2.5V12.7z
			 M457.7,16.6h1c0.1,0,0.3,0,0.5,0c0.2,0,0.3-0.1,0.5-0.1c0.1-0.1,0.3-0.2,0.4-0.3c0.1-0.1,0.1-0.3,0.1-0.6c0-0.2,0-0.4-0.1-0.6
			s-0.2-0.2-0.4-0.3c-0.1-0.1-0.3-0.1-0.5-0.1c-0.2,0-0.3,0-0.5,0h-1V16.6z"/>
	</g>
	<g id="logo" transform="translate(0 7.689)">
		<g id="_Group_" transform="translate(8.188)">
			<path id="_Path_" class="st1" d="M70.2,21.9c0,0.8,0,1.5-0.1,2.3c-0.5-1.1-1.2-2.2-2-3.1l-0.2-0.3c-7.9-8.4-28-7.7-28-16.7
				c0.1-2.4,1.4-4.6,3.4-5.8c2.5-1.5,5.3-2.2,8.2-2.2c3.2,0,6.3,0.5,9.4,1.4C66.8,4.2,70.2,12.9,70.2,21.9z"/>
			<path id="_Path_2" class="st1" d="M62,29.2c0,4.5-5,7.2-11.3,7.2c-4.4,0-8.7-1-12.7-2.9c-4.4-2.1-8.5-4.9-12.9-6.8
				c-4.3-1.9-8.9-3.6-13.2-5.3c-3-1.1-6.7-3-6.7-6.7c0-4.5,5-7.2,11.3-7.2c6.1,0,11.6,2.4,16.9,5c5.8,2.9,11.7,5.9,18,7.8
				C55.6,21.7,62,23.8,62,29.2z"/>
		</g>
		<path id="_Path_3" class="st1" d="M35.5,39.8c-0.1,2.4-1.4,4.6-3.4,5.8c-2.5,1.5-5.3,2.2-8.2,2.2c-3.2,0-6.3-0.5-9.4-1.4
			c-6-6.7-9.4-15.4-9.4-24.4c0-0.8,0-1.5,0.1-2.3c0.5,1.1,1.2,2.2,2,3.1L7.5,23C15.4,31.4,35.5,30.7,35.5,39.8z"/>
	</g>
</g>
</svg>
