<?xml version="1.0" encoding="utf-8"?>
<!-- Svg Vector Icons : http://www.onlinewebfonts.com/icon -->
<!DOCTYPE svg PUBLIC "-//W3C//DTD SVG 1.1//EN" "http://www.w3.org/Graphics/SVG/1.1/DTD/svg11.dtd">
<svg version="1.1" xmlns="http://www.w3.org/2000/svg" xmlns:xlink="http://www.w3.org/1999/xlink" x="0px" y="0px" viewBox="0 0 256 256" enable-background="new 0 0 256 256" xml:space="preserve">
<metadata> Svg Vector Icons : http://www.onlinewebfonts.com/icon </metadata>
<g><g><path fill="#000000" d="M227.3,51H170V32.4c0-7.1-5.7-12.8-12.8-12.8H98.8c-7.1,0-12.8,5.7-12.8,12.8V51H28.7C18.4,51,10,59.5,10,69.9v147.6c0,10.4,8.4,18.9,18.7,18.9h198.6c10.3,0,18.7-8.5,18.7-18.9V69.9C246,59.5,237.7,51,227.3,51z M93.5,32.4c0-2.9,2.3-5.2,5.2-5.2h58.5c2.9,0,5.2,2.3,5.2,5.2V51h-69V32.4z M241.7,149.7H157v3.8c0,2.6-2.1,4.6-4.6,4.6h-47.8c-2.6,0-4.6-2.1-4.6-4.6v-3.8H12.1v-8.6H100v-3.8c0-2.6,2.1-4.6,4.6-4.6h47.8c2.6,0,4.6,2.1,4.6,4.6v3.8h84.7V149.7L241.7,149.7z"/></g></g>
</svg>